<svg width="28" height="24" viewBox="0 0 28 24" fill="none" xmlns="http://www.w3.org/2000/svg">
<path d="M26.709 4.70758L22.9715 8.44508C22.2165 17.1976 14.8353 24.0001 6.00153 24.0001C4.18653 24.0001 2.69028 23.7126 1.55403 23.1451C0.637777 22.6863 0.262777 22.1951 0.169027 22.0551C0.0854325 21.9297 0.0312493 21.7871 0.0105263 21.6378C-0.0101967 21.4886 0.00307638 21.3366 0.0493532 21.1932C0.0956301 21.0498 0.173714 20.9187 0.277772 20.8097C0.381829 20.7007 0.509169 20.6167 0.650277 20.5638C0.682777 20.5513 3.68028 19.4001 5.58403 17.2088C4.52826 16.3408 3.60662 15.3214 2.84903 14.1838C1.29903 11.8826 -0.435973 7.88508 0.0990268 1.91133C0.115985 1.72151 0.186829 1.54049 0.303218 1.38959C0.419606 1.23868 0.576691 1.12418 0.755974 1.05955C0.935258 0.994934 1.12927 0.982888 1.31517 1.02484C1.50107 1.06678 1.67112 1.16098 1.80528 1.29633C1.84903 1.34008 5.96528 5.43383 10.9978 6.76133V6.00008C10.9959 5.20182 11.1537 4.41125 11.462 3.67492C11.7702 2.93858 12.2227 2.27137 12.7928 1.71258C13.3464 1.15974 14.0051 0.72338 14.7301 0.429258C15.4551 0.135136 16.2317 -0.0107946 17.014 7.74433e-05C18.0635 0.0104286 19.0924 0.292144 20.0007 0.817834C20.9091 1.34352 21.666 2.0953 22.1978 3.00008H26.0015C26.1994 2.99992 26.3929 3.05849 26.5575 3.16836C26.7221 3.27823 26.8504 3.43446 26.9261 3.61729C27.0019 3.80011 27.0217 4.0013 26.9831 4.19538C26.9444 4.38947 26.849 4.56772 26.709 4.70758Z" fill="#FEFEFE"/>
</svg>
