<svg width="158" height="158" viewBox="0 0 158 158" fill="none" xmlns="http://www.w3.org/2000/svg">
<path d="M114.231 55.394C115.044 56.204 115.689 57.1665 116.129 58.2263C116.569 59.286 116.795 60.4223 116.795 61.5698C116.795 62.7173 116.569 63.8535 116.129 64.9133C115.689 65.9731 115.044 66.9355 114.231 67.7456L73.5435 108.433C72.7335 109.246 71.7711 109.891 70.7113 110.331C69.6515 110.771 68.5153 110.997 67.3678 110.997C66.2203 110.997 65.084 110.771 64.0243 110.331C62.9645 109.891 62.002 109.246 61.192 108.433L43.7545 90.9955C42.9435 90.1845 42.3001 89.2217 41.8612 88.1621C41.4223 87.1024 41.1964 85.9667 41.1964 84.8198C41.1964 83.6728 41.4223 82.5371 41.8612 81.4775C42.3001 80.4178 42.9435 79.455 43.7545 78.644C44.5655 77.833 45.5283 77.1896 46.588 76.7507C47.6476 76.3118 48.7833 76.0859 49.9303 76.0859C51.0772 76.0859 52.2129 76.3118 53.2726 76.7507C54.3322 77.1896 55.295 77.833 56.106 78.644L67.375 89.8984L101.894 55.3722C102.705 54.563 103.668 53.9216 104.727 53.4847C105.786 53.0478 106.921 52.824 108.067 52.826C109.213 52.828 110.347 53.0559 111.405 53.4965C112.462 53.9371 113.423 54.5819 114.231 55.394ZM157.469 79C157.469 94.5197 152.867 109.691 144.244 122.595C135.622 135.499 123.367 145.557 109.029 151.496C94.6904 157.435 78.913 158.989 63.6915 155.961C48.4701 152.933 34.4883 145.46 23.5143 134.486C12.5402 123.512 5.06677 109.53 2.03904 94.3085C-0.988694 79.087 0.565249 63.3096 6.50436 48.9713C12.4435 34.633 22.501 22.3779 35.4051 13.7556C48.3093 5.13336 63.4804 0.53125 79 0.53125C99.8042 0.554327 119.75 8.82896 134.46 23.5397C149.171 38.2505 157.446 58.1959 157.469 79ZM140.031 79C140.031 66.9292 136.452 55.1294 129.746 45.0929C123.039 35.0563 113.508 27.2338 102.356 22.6145C91.2037 17.9952 78.9323 16.7865 67.0934 19.1414C55.2545 21.4964 44.3798 27.309 35.8444 35.8444C27.309 44.3798 21.4964 55.2545 19.1415 67.0934C16.7866 78.9323 17.9952 91.2036 22.6145 102.356C27.2338 113.508 35.0564 123.039 45.0929 129.746C55.1294 136.452 66.9292 140.031 79 140.031C95.1812 140.014 110.695 133.578 122.137 122.136C133.578 110.695 140.014 95.1812 140.031 79Z" fill="#3A4B69"/>
</svg>
