<svg width="26" height="27" viewBox="0 0 26 27" fill="none" xmlns="http://www.w3.org/2000/svg">
<path d="M16.0725 15.1538L18.9475 16.5888C18.8112 17.2697 18.4429 17.8823 17.9054 18.322C17.3679 18.7618 16.6945 19.0014 16 19C13.6139 18.9974 11.3262 18.0483 9.63896 16.3611C7.95171 14.6738 7.00265 12.3862 7 10C6.99981 9.30644 7.23995 8.6342 7.67958 8.09772C8.1192 7.56123 8.73114 7.19366 9.41125 7.05754L10.8462 9.93254L9.625 11.75C9.53374 11.8869 9.47767 12.0442 9.46175 12.208C9.44583 12.3717 9.47056 12.5369 9.53375 12.6888C10.2492 14.3893 11.602 15.7421 13.3025 16.4575C13.4549 16.5235 13.6213 16.5505 13.7867 16.5361C13.9521 16.5217 14.1113 16.4664 14.25 16.375L16.0725 15.1538ZM26 13C26.0005 15.2445 25.4199 17.4508 24.3147 19.4042C23.2095 21.3577 21.6174 22.9917 19.6934 24.1473C17.7693 25.3029 15.5788 25.9407 13.3352 25.9986C11.0915 26.0564 8.87107 25.5324 6.89 24.4775L2.63375 25.8963C2.28136 26.0138 1.9032 26.0309 1.54166 25.9455C1.18012 25.8602 0.849484 25.6759 0.586814 25.4132C0.324144 25.1506 0.139818 24.8199 0.0544969 24.4584C-0.0308244 24.0968 -0.0137696 23.7187 0.10375 23.3663L1.5225 19.11C0.595185 17.3666 0.0772463 15.4348 0.00799667 13.4613C-0.061253 11.4877 0.320007 9.52438 1.12284 7.72021C1.92567 5.91604 3.12897 4.31847 4.6414 3.04878C6.15383 1.77909 7.93564 0.870635 9.85158 0.392383C11.7675 -0.0858696 13.7672 -0.121353 15.699 0.288624C17.6307 0.698602 19.4436 1.54327 21.0001 2.7585C22.5566 3.97374 23.8158 5.52761 24.6822 7.30216C25.5485 9.07671 25.9992 11.0253 26 13ZM21 16C21.0001 15.8143 20.9485 15.6321 20.8509 15.474C20.7533 15.3159 20.6136 15.1882 20.4475 15.105L16.4475 13.105C16.29 13.0266 16.1147 12.991 15.9391 13.002C15.7635 13.013 15.594 13.0701 15.4475 13.1675L13.6112 14.3925C12.7683 13.9291 12.0746 13.2355 11.6112 12.3925L12.8363 10.5563C12.9337 10.4098 12.9908 10.2403 13.0018 10.0647C13.0127 9.8891 12.9772 9.71374 12.8988 9.55629L10.8988 5.55629C10.8159 5.38888 10.6877 5.24803 10.5289 5.14972C10.37 5.05141 10.1868 4.99955 10 5.00004C8.67392 5.00004 7.40215 5.52682 6.46447 6.46451C5.52678 7.40219 5 8.67396 5 10C5.00331 12.9164 6.1633 15.7124 8.22548 17.7746C10.2877 19.8367 13.0836 20.9967 16 21C16.6566 21 17.3068 20.8707 17.9134 20.6194C18.52 20.3682 19.0712 19.9999 19.5355 19.5356C19.9998 19.0713 20.3681 18.5201 20.6194 17.9135C20.8707 17.3068 21 16.6566 21 16Z" fill="#FEFEFE"/>
</svg>
